<?xml version="1.0" encoding="UTF-8" standalone="no"?>
<svg
   xmlns:osb="http://www.openswatchbook.org/uri/2009/osb"
   xmlns:dc="http://purl.org/dc/elements/1.1/"
   xmlns:cc="http://creativecommons.org/ns#"
   xmlns:rdf="http://www.w3.org/1999/02/22-rdf-syntax-ns#"
   xmlns:svg="http://www.w3.org/2000/svg"
   xmlns="http://www.w3.org/2000/svg"
   version="1.1"
   id="svg10"
   width="860"
   height="901"
   viewBox="0 0 860 901">
  <metadata
     id="metadata16">
    <rdf:RDF>
      <cc:Work
         rdf:about="">
        <dc:format>image/svg+xml</dc:format>
        <dc:type
           rdf:resource="http://purl.org/dc/dcmitype/StillImage" />
        <dc:title></dc:title>
      </cc:Work>
    </rdf:RDF>
  </metadata>
  <defs
     id="defs14">
    <rect
       x="300.42413"
       y="228.79081"
       width="82.800484"
       height="47.937122"
       id="rect960" />
    <rect
       x="161.24305"
       y="563.26119"
       width="475.0133"
       height="120.93229"
       id="rect884" />
    <rect
       x="204.82225"
       y="349.7231"
       width="504.42926"
       height="41.400242"
       id="rect878" />
    <rect
       x="247.31197"
       y="210.26965"
       width="435.79202"
       height="92.605804"
       id="rect927" />
    <linearGradient
       id="linearGradient921"
       osb:paint="solid">
      <stop
         style="stop-color:#000000;stop-opacity:1;"
         offset="0"
         id="stop919" />
    </linearGradient>
    <linearGradient
       id="linearGradient915"
       osb:paint="solid">
      <stop
         style="stop-color:#000000;stop-opacity:1;"
         offset="0"
         id="stop913" />
    </linearGradient>
    <rect
       x="204.82225"
       y="349.7231"
       width="504.42926"
       height="41.400242"
       id="rect950" />
    <rect
       x="161.24305"
       y="563.26119"
       width="475.0133"
       height="120.93229"
       id="rect952" />
  </defs>
  <g
     id="g18"
     style="display:none;opacity:0.996">
    <g
       id="layer7">
      <path
         d="m 338.93359,227.58877 h 0.17578 q 3.78907,0 6.11329,2.28516 2.22656,-2.28516 6.13281,-2.28516 h 0.60547 q 5.15625,0 7.30468,3.88672 0.70313,1.52344 0.70313,3.00781 v 11.75781 l -0.0391,0.0586 h -3.67188 l -0.0391,-0.0586 v -11.71875 q 0,-2.10937 -2.34375,-2.91015 -0.72266,-0.25391 -1.83594,-0.25391 h -0.76172 q -3.04687,0 -3.94531,2.03125 -0.23437,0.54688 -0.23437,1.23047 v 11.62109 l -0.0391,0.0586 h -3.67187 l -0.0391,-0.0586 v -11.28906 q 0,-2.08984 -1.34766,-2.85156 -1.03516,-0.74219 -2.8125,-0.74219 h -0.3125 q -2.38281,0 -3.37891,0.74219 -1.28906,0.78125 -1.28906,2.89062 v 11.25 l -0.0586,0.0586 h -3.65235 l -0.0586,-0.0586 v -18.49609 l 0.0586,-0.0586 h 3.65235 l 0.0586,0.0586 v 1.05469 h 0.0195 q 0.9961,-0.54688 2.61719,-1.01563 0.83984,-0.19531 2.08984,-0.19531 z"
         style="font-style:normal;font-variant:normal;font-weight:bold;font-stretch:normal;font-size:40px;line-height:1.25;font-family:'Louis George Café';-inkscape-font-specification:'Louis George Café Bold';white-space:pre;shape-inside:url(#rect927);display:inline;opacity:0.996;fill:#000000;fill-opacity:1;stroke:none"
         id="path873"
         transform="matrix(2.1987939,0,0,2.1987939,-243.84147,-185.81045)" />
    </g>
    <g
       aria-label="skram"
       transform="matrix(2.1987939,0,0,2.1987939,-243.84147,-185.81045)"
       id="text925"
       style="font-style:normal;font-variant:normal;font-weight:bold;font-stretch:normal;font-size:40px;line-height:1.25;font-family:'Louis George Café';-inkscape-font-specification:'Louis George Café Bold';white-space:pre;shape-inside:url(#rect927);fill:#000000;fill-opacity:1;stroke:none" />
    <text
       xml:space="preserve"
       id="text876"
       style="font-style:normal;font-weight:normal;font-size:40px;line-height:1.25;font-family:sans-serif;white-space:pre;shape-inside:url(#rect878);fill:#000000;fill-opacity:1;stroke:none;"><tspan
         style="visibility:hidden"
         x="204.82227"
         y="427.61626"><tspan
           dx="0 24.121094 31.484375 27.714844 25.292969 27.8125 27.34375 24.121094">POKERAPP</tspan></tspan></text>
    <text
       xml:space="preserve"
       id="text882"
       style="font-style:normal;font-weight:normal;font-size:40px;line-height:1.25;font-family:sans-serif;text-align:center;letter-spacing:19.5378px;white-space:pre;shape-inside:url(#rect884);fill:#000000;fill-opacity:1;stroke:none"
       transform="matrix(0.71655803,0,0,0.71655803,139.81418,-42.740389)"
       x="171.85547"
       y="0"><tspan
         x="265.47742"
         y="599.75493"><tspan
           style="text-align:center;text-anchor:middle">-poker-</tspan></tspan></text>
    <g
       id="layer6">
      <path
         d="m 315.14453,227.2958 q 3.26172,0 5.58594,2.48047 v -2.14844 l 0.0586,-0.0391 h 3.69141 l 0.0391,0.0391 v 18.63282 l -0.0391,0.0391 h -3.69141 l -0.0586,-0.0391 v -1.89454 q -2.1875,2.40235 -5.625,2.40235 h -0.0195 q -4.27735,0 -7.26563,-3.45703 -2.22656,-2.79297 -2.22656,-6.26953 v -0.0195 q 0,-4.29687 3.32031,-7.42187 2.75391,-2.30469 6.23047,-2.30469 z m -5.78125,9.72656 q 0,3.08594 2.65625,5.0586 1.48438,0.89844 2.8125,0.89844 h 0.42969 q 1.875,0 3.63281,-1.52344 1.83594,-1.875 1.83594,-4.41406 v -0.0195 q 0,-3.125 -2.65625,-5.03906 -1.46485,-0.89844 -2.89063,-0.89844 h -0.3125 q -2.34375,0 -4.23828,2.16797 -1.26953,1.79688 -1.26953,3.76953 z"
         style="font-style:normal;font-variant:normal;font-weight:bold;font-stretch:normal;font-size:40px;line-height:1.25;font-family:'Louis George Café';-inkscape-font-specification:'Louis George Café Bold';white-space:pre;shape-inside:url(#rect927);display:inline;opacity:0.996;fill:#000000;fill-opacity:1;stroke:none"
         id="path871"
         transform="matrix(2.1987939,0,0,2.1987939,-243.84147,-185.81045)" />
    </g>
    <g
       id="layer5">
      <path
         d="m 298.62109,227.47158 h 0.48828 q 1.9336,0 4.00391,1.13282 v 0.0195 q -0.82031,3.71093 -0.89844,3.88672 -1.875,-1.23047 -3.32031,-1.23047 h -0.3125 q -1.875,0 -3.30078,1.38672 -1.07422,1.30859 -1.07422,4.96093 v 8.59375 l -0.0391,0.0586 h -3.65235 l -0.0586,-0.0586 v -18.33984 l 0.0586,-0.0391 h 3.65235 l 0.0391,0.0391 v 1.40625 q 2.14844,-1.81641 4.41406,-1.81641 z"
         style="font-style:normal;font-variant:normal;font-weight:bold;font-stretch:normal;font-size:40px;line-height:1.25;font-family:'Louis George Café';-inkscape-font-specification:'Louis George Café Bold';white-space:pre;shape-inside:url(#rect927);display:inline;opacity:0.996;fill:#000000;fill-opacity:1;stroke:none"
         id="path869"
         transform="matrix(2.1987939,0,0,2.1987939,-243.84147,-185.81045)" />
    </g>
    <g
       id="layer4">
      <path
         d="m 269.55859,217.70596 h 3.65235 l 0.0586,0.0586 v 17.40235 h 0.0195 l 7.98828,-7.57813 h 5.42969 v 0.0195 l -8.63281,8.22266 8.26172,10.44922 -0.0195,0.0195 h -4.72657 q -0.50781,-0.54688 -6.23047,-7.85156 h -0.0195 q -1.71875,1.58203 -2.07031,1.97265 v 5.82031 l -0.0586,0.0586 h -3.65235 l -0.0586,-0.0586 V 217.7645 Z"
         style="font-style:normal;font-variant:normal;font-weight:bold;font-stretch:normal;font-size:40px;line-height:1.25;font-family:'Louis George Café';-inkscape-font-specification:'Louis George Café Bold';white-space:pre;shape-inside:url(#rect927);display:inline;opacity:0.996;fill:#000000;fill-opacity:1;stroke:none"
         id="path867"
         transform="matrix(2.1987939,0,0,2.1987939,-243.84147,-185.81045)" />
    </g>
    <g
       id="layer3">
      <path
         d="m 257.05859,226.51455 q 3.57422,0 6.07422,2.22656 0.56641,0.54688 0.80078,0.85938 l 0.23438,0.37109 q -0.0391,0.0586 -1.05469,0.66407 -0.99609,0.60546 -2.12891,1.34765 -0.35156,-0.42969 -0.70312,-0.68359 -1.30859,-0.9961 -3.18359,-0.9961 h -0.0781 q -2.05078,0 -3.28125,0.97657 -0.68359,0.58593 -0.68359,1.26953 0,0.42969 0.37109,0.66406 0.37109,0.3125 1.44531,0.68359 1.48438,0.48829 4.60938,1.03516 1.01562,0.23438 1.73828,0.54688 0.68359,0.27343 1.36719,0.74218 0.3125,0.21485 0.8789,0.78125 1.42578,1.5625 1.42578,3.51563 v 0.0586 q 0,1.99219 -1.48437,3.73047 -0.625,0.64453 -0.89844,0.80078 -0.78125,0.54688 -1.28906,0.76172 -1.99219,0.91797 -4.23828,0.91797 h -0.13672 q -2.92969,0 -5.35156,-1.54297 -0.52735,-0.35156 -1.13282,-0.91797 -0.5664,-0.54687 -0.78125,-0.85937 -0.39062,-0.48828 -0.68359,-1.01563 l 3.26172,-1.875 h 0.0195 l 0.15625,0.27344 q 0.21484,0.33203 0.68359,0.78125 0.87891,0.82031 2.1875,1.17187 0.85938,0.19532 1.71875,0.19532 1.71875,0 3.06641,-0.76172 0.25391,-0.13672 0.625,-0.48828 0.50781,-0.60547 0.50781,-1.21094 0,-1.07422 -1.66015,-1.69922 -0.54688,-0.19531 -2.01172,-0.42969 -3.14453,-0.60547 -4.6875,-1.26953 -0.66406,-0.27344 -1.3086,-0.70312 -1.48437,-0.95703 -1.95312,-2.44141 -0.23438,-0.66406 -0.23438,-1.40625 v -0.11719 q 0,-1.85547 1.38672,-3.47656 0.58594,-0.60547 0.83985,-0.78125 0.66406,-0.48828 1.25,-0.78125 1.95312,-0.91797 4.3164,-0.91797 z"
         style="font-style:normal;font-variant:normal;font-weight:bold;font-stretch:normal;font-size:40px;line-height:1.25;font-family:'Louis George Café';-inkscape-font-specification:'Louis George Café Bold';white-space:pre;shape-inside:url(#rect927);display:inline;opacity:0.996;fill:#000000;fill-opacity:1;stroke:none"
         id="path865"
         transform="matrix(2.1987939,0,0,2.1987939,-243.84147,-185.81045)" />
    </g>
  </g>
  <g
     id="layer10"
     style="display:none">
    <text
       xml:space="preserve"
       id="text930"
       style="font-style:normal;font-weight:normal;font-size:52.8959px;line-height:1.05;font-family:sans-serif;text-align:center;letter-spacing:27.7704px;white-space:pre;shape-inside:url(#rect952);display:inline;opacity:0.996;fill:#000000;fill-opacity:1;stroke:none"
       transform="matrix(0.25356937,0,0,0.25356937,413.45898,214.1628)"
       x="171.85547"
       y="0"><tspan
         x="268.24223"
         y="606.23066"><tspan
           style="font-size:52.8959px;text-align:center;text-anchor:middle">poker</tspan></tspan></text>
  </g>
  <g
     id="g948"
     style="display:inline;opacity:0.996">
    <g
       id="g920">
      <path
         d="m 338.93359,227.58877 h 0.17578 q 3.78907,0 6.11329,2.28516 2.22656,-2.28516 6.13281,-2.28516 h 0.60547 q 5.15625,0 7.30468,3.88672 0.70313,1.52344 0.70313,3.00781 v 11.75781 l -0.0391,0.0586 h -3.67188 l -0.0391,-0.0586 v -11.71875 q 0,-2.10937 -2.34375,-2.91015 -0.72266,-0.25391 -1.83594,-0.25391 h -0.76172 q -3.04687,0 -3.94531,2.03125 -0.23437,0.54688 -0.23437,1.23047 v 11.62109 l -0.0391,0.0586 h -3.67187 l -0.0391,-0.0586 v -11.28906 q 0,-2.08984 -1.34766,-2.85156 -1.03516,-0.74219 -2.8125,-0.74219 h -0.3125 q -2.38281,0 -3.37891,0.74219 -1.28906,0.78125 -1.28906,2.89062 v 11.25 l -0.0586,0.0586 h -3.65235 l -0.0586,-0.0586 v -18.49609 l 0.0586,-0.0586 h 3.65235 l 0.0586,0.0586 v 1.05469 h 0.0195 q 0.9961,-0.54688 2.61719,-1.01563 0.83984,-0.19531 2.08984,-0.19531 z"
         style="font-style:normal;font-variant:normal;font-weight:bold;font-stretch:normal;font-size:40px;line-height:1.25;font-family:'Louis George Café';-inkscape-font-specification:'Louis George Café Bold';white-space:pre;shape-inside:url(#rect927);display:inline;opacity:0.996;fill:#000000;fill-opacity:1;stroke:none"
         id="path918"
         transform="matrix(2.1987939,0,0,2.1987939,-243.84147,-185.81045)" />
    </g>
    <g
       id="g977">
      <path
         d="m 298.62109,227.47158 h 0.48828 q 1.9336,0 4.00391,1.13282 v 0.0195 q -0.82031,3.71093 -0.89844,3.88672 -1.875,-1.23047 -3.32031,-1.23047 h -0.3125 q -1.875,0 -3.30078,1.38672 -1.07422,1.30859 -1.07422,4.96093 v 8.59375 l -0.0391,0.0586 h -3.65235 l -0.0586,-0.0586 v -18.33984 l 0.0586,-0.0391 h 3.65235 l 0.0391,0.0391 v 1.40625 q 2.14844,-1.81641 4.41406,-1.81641 z"
         style="font-style:normal;font-variant:normal;font-weight:bold;font-stretch:normal;font-size:40px;line-height:1.25;font-family:'Louis George Café';-inkscape-font-specification:'Louis George Café Bold';white-space:pre;shape-inside:url(#rect927);display:inline;opacity:0.996;fill:#000000;fill-opacity:1;stroke:none"
         id="path975"
         transform="matrix(2.1987939,0,0,2.1987939,-243.84147,-185.81045)" />
    </g>
    <g
       aria-label="skram"
       transform="matrix(2.1987939,0,0,2.1987939,-243.84147,-185.81045)"
       id="g922"
       style="font-style:normal;font-variant:normal;font-weight:bold;font-stretch:normal;font-size:40px;line-height:1.25;font-family:'Louis George Café';-inkscape-font-specification:'Louis George Café Bold';white-space:pre;shape-inside:url(#rect927);fill:#000000;fill-opacity:1;stroke:none" />
    <text
       xml:space="preserve"
       id="text926"
       style="font-style:normal;font-weight:normal;font-size:40px;line-height:1.25;font-family:sans-serif;white-space:pre;shape-inside:url(#rect950);fill:#000000;fill-opacity:1;stroke:none;"><tspan
         style="visibility:hidden"
         x="204.82227"
         y="427.61626"><tspan
           dx="0 24.121094 31.484375 27.714844 25.292969 27.8125 27.34375 24.121094">POKERAPP</tspan></tspan></text>
    <g
       id="g942">
      <path
         d="m 269.55859,217.70596 h 3.65235 l 0.0586,0.0586 v 17.40235 h 0.0195 l 7.98828,-7.57813 h 5.42969 v 0.0195 l -8.63281,8.22266 8.26172,10.44922 -0.0195,0.0195 h -4.72657 q -0.50781,-0.54688 -6.23047,-7.85156 h -0.0195 q -1.71875,1.58203 -2.07031,1.97265 v 5.82031 l -0.0586,0.0586 h -3.65235 l -0.0586,-0.0586 V 217.7645 Z"
         style="font-style:normal;font-variant:normal;font-weight:bold;font-stretch:normal;font-size:40px;line-height:1.25;font-family:'Louis George Café';-inkscape-font-specification:'Louis George Café Bold';white-space:pre;shape-inside:url(#rect927);display:inline;opacity:0.996;fill:#000000;fill-opacity:1;stroke:none"
         id="path940"
         transform="matrix(2.1987939,0,0,2.1987939,-243.84147,-185.81045)" />
    </g>
    <g
       id="g946">
      <path
         d="m 257.05859,226.51455 q 3.57422,0 6.07422,2.22656 0.56641,0.54688 0.80078,0.85938 l 0.23438,0.37109 q -0.0391,0.0586 -1.05469,0.66407 -0.99609,0.60546 -2.12891,1.34765 -0.35156,-0.42969 -0.70312,-0.68359 -1.30859,-0.9961 -3.18359,-0.9961 h -0.0781 q -2.05078,0 -3.28125,0.97657 -0.68359,0.58593 -0.68359,1.26953 0,0.42969 0.37109,0.66406 0.37109,0.3125 1.44531,0.68359 1.48438,0.48829 4.60938,1.03516 1.01562,0.23438 1.73828,0.54688 0.68359,0.27343 1.36719,0.74218 0.3125,0.21485 0.8789,0.78125 1.42578,1.5625 1.42578,3.51563 v 0.0586 q 0,1.99219 -1.48437,3.73047 -0.625,0.64453 -0.89844,0.80078 -0.78125,0.54688 -1.28906,0.76172 -1.99219,0.91797 -4.23828,0.91797 h -0.13672 q -2.92969,0 -5.35156,-1.54297 -0.52735,-0.35156 -1.13282,-0.91797 -0.5664,-0.54687 -0.78125,-0.85937 -0.39062,-0.48828 -0.68359,-1.01563 l 3.26172,-1.875 h 0.0195 l 0.15625,0.27344 q 0.21484,0.33203 0.68359,0.78125 0.87891,0.82031 2.1875,1.17187 0.85938,0.19532 1.71875,0.19532 1.71875,0 3.06641,-0.76172 0.25391,-0.13672 0.625,-0.48828 0.50781,-0.60547 0.50781,-1.21094 0,-1.07422 -1.66015,-1.69922 -0.54688,-0.19531 -2.01172,-0.42969 -3.14453,-0.60547 -4.6875,-1.26953 -0.66406,-0.27344 -1.3086,-0.70312 -1.48437,-0.95703 -1.95312,-2.44141 -0.23438,-0.66406 -0.23438,-1.40625 v -0.11719 q 0,-1.85547 1.38672,-3.47656 0.58594,-0.60547 0.83985,-0.78125 0.66406,-0.48828 1.25,-0.78125 1.95312,-0.91797 4.3164,-0.91797 z"
         style="font-style:normal;font-variant:normal;font-weight:bold;font-stretch:normal;font-size:40px;line-height:1.25;font-family:'Louis George Café';-inkscape-font-specification:'Louis George Café Bold';white-space:pre;shape-inside:url(#rect927);display:inline;opacity:0.996;fill:#000000;fill-opacity:1;stroke:none"
         id="path944"
         transform="matrix(2.1987939,0,0,2.1987939,-243.84147,-185.81045)" />
    </g>
  </g>
  <g
     id="layer1"
     style="display:none">
    <rect
       style="display:inline;fill:#ffffff;fill-rule:evenodd;stroke:#000000;stroke-width:2.42498;stroke-linecap:round;stroke-linejoin:round;stroke-miterlimit:4;stroke-dasharray:none;stroke-dashoffset:0;stroke-opacity:1;paint-order:normal"
       id="rect894"
       width="52.735146"
       height="72.610199"
       x="344.84482"
       y="353.29526"
       ry="4.2344575"
       transform="rotate(-8.1099256)" />
  </g>
  <g
     id="layer2"
     style="display:inline">
    <rect
       style="display:inline;fill:#ffffff;fill-opacity:1;fill-rule:evenodd;stroke:#000000;stroke-width:2.42498;stroke-linecap:round;stroke-linejoin:round;stroke-miterlimit:4;stroke-dasharray:none;stroke-dashoffset:0;stroke-opacity:1;paint-order:normal"
       id="rect42"
       width="52.735146"
       height="72.610199"
       x="457.04343"
       y="240.22221"
       ry="4.2344575"
       transform="rotate(6.8603558)" />
  </g>
  <g
     id="layer8"
     style="display:inline">
    <g
       aria-label="45"
       transform="rotate(7.8423278,335.41067,866.58432)"
       id="text958"
       style="font-style:normal;font-weight:normal;font-size:40px;line-height:1.25;font-family:sans-serif;white-space:pre;shape-inside:url(#rect960);display:inline;fill:#000000;fill-opacity:1;stroke:none">
      <path
         d="m 378.61299,311.00196 -5.44522,9.21018 q -5.2274,8.80568 -5.41409,9.14794 -0.0934,0.0623 -0.43562,0.71566 h 9.52135 l 1.80469,-0.0311 v -19.04263 z m 0.0623,-11.855 h 5.94305 l 0.0311,0.0311 v 30.86656 h 3.67163 l 0.0311,0.0311 v 5.94306 l -0.0311,0.0311 h -3.64052 v 6.59649 l -0.0311,0.0311 h -5.97417 l -0.0311,-0.0311 v -6.56538 h -21.9053 v -0.0311 l 7.56106,-12.72622 7.37437,-12.41508 6.4098,-10.79707 z"
         style="font-style:normal;font-variant:normal;font-weight:bold;font-stretch:normal;font-family:'Louis George Café';-inkscape-font-specification:'Louis George Café Bold';stroke-width:1.59311"
         id="path967" />
    </g>
  </g>
</svg>
