<?xml version="1.0" encoding="UTF-8"?>
<svg width="710.67" height="232.39" version="1.1" viewBox="0 0 710.67 232.39" xmlns="http://www.w3.org/2000/svg" xmlns:cc="http://creativecommons.org/ns#" xmlns:dc="http://purl.org/dc/elements/1.1/" xmlns:osb="http://www.openswatchbook.org/uri/2009/osb" xmlns:rdf="http://www.w3.org/1999/02/22-rdf-syntax-ns#">
 <metadata>
  <rdf:RDF>
   <cc:Work rdf:about="">
    <dc:format>image/svg+xml</dc:format>
    <dc:type rdf:resource="http://purl.org/dc/dcmitype/StillImage"/>
    <dc:title/>
   </cc:Work>
  </rdf:RDF>
 </metadata>
 <g fill="#fff">
  <path transform="translate(-78.922 -292.36)" d="m655.01 357.11h1.1247q24.243 0 39.114 14.621 14.246-14.621 39.239-14.621h3.8739q32.99 0 46.736 24.868 4.4987 9.7472 4.4987 19.244v75.228l-0.25017 0.37493h-23.493l-0.25017-0.37493v-74.978q0-13.496-14.996-18.62-4.6237-1.6246-11.747-1.6246h-4.8736q-19.494 0-25.243 12.996-1.4995 3.499-1.4995 7.8727v74.353l-0.25017 0.37493h-23.493l-0.25017-0.37493v-72.229q0-13.371-8.6225-18.245-6.6231-4.7486-17.995-4.7486h-1.9994q-15.246 0-21.619 4.7486-8.2476 4.9986-8.2476 18.495v71.979l-0.37494 0.37493h-23.368l-0.37493-0.37493v-118.34l0.37493-0.37493h23.368l0.37494 0.37493v6.7481h0.12476q6.3732-3.499 16.745-6.4982 5.3734-1.2496 13.371-1.2496z" opacity=".996" style="shape-inside:url(#rect927);white-space:pre"/>
  <path transform="translate(-78.922 -292.36)" d="m397.08 356.36h3.1241q12.371 0 25.618 7.2479v0.12477q-5.2485 23.743-5.7484 24.868-11.997-7.8727-21.244-7.8727h-1.9994q-11.997 0-21.119 8.8724-6.873 8.3725-6.873 31.741v54.984l-0.25017 0.37493h-23.368l-0.37493-0.37493v-117.34l0.37493-0.25017h23.368l0.25017 0.25017v8.9974q13.746-11.622 28.242-11.622z" opacity=".996" style="shape-inside:url(#rect927);white-space:pre"/>
  <path transform="translate(-78.922 -292.36)" d="m211.13 293.88h23.368l0.37493 0.37493v111.34h0.12477l51.11-48.486h34.74v0.12476l-55.234 52.61 52.86 66.856-0.12476 0.12476h-30.241q-3.249-3.499-39.863-50.235h-0.12476q-10.997 10.122-13.246 12.621v37.239l-0.37494 0.37493h-23.368l-0.37493-0.37493v-182.2z" opacity=".996" style="shape-inside:url(#rect927);white-space:pre"/>
  <path transform="translate(-78.922 -292.36)" d="m131.16 350.23q22.868 0 38.864 14.246 3.624 3.499 5.1235 5.4984l1.4996 2.3743q-0.25017 0.37493-6.7481 4.2488-6.3731 3.8738-13.621 8.6225-2.2493-2.7492-4.4987-4.3737-8.3725-6.3732-20.369-6.3732h-0.49969q-13.121 0-20.994 6.2482-4.3737 3.7489-4.3737 8.1226 0 2.7492 2.3743 4.2488 2.3743 1.9994 9.2473 4.3737 9.4973 3.1242 29.491 6.6231 6.4981 1.4996 11.122 3.499 4.3737 1.7494 8.7475 4.7486 1.9994 1.3746 5.6233 4.9986 9.1223 9.9971 9.1223 22.494v0.37494q0 12.746-9.4972 23.868-3.9988 4.1238-5.7484 5.1235-4.9986 3.499-8.2476 4.8736-12.746 5.8733-27.117 5.8733h-0.87476q-18.745 0-34.24-9.8722-3.3741-2.2493-7.2479-5.8733-3.6239-3.499-4.9986-5.4984-2.4992-3.1241-4.3737-6.4982l20.869-11.997h0.12476l0.99971 1.7495q1.3746 2.1244 4.3737 4.9986 5.6234 5.2485 13.996 7.4978 5.4984 1.2497 10.997 1.2497 10.997 0 19.619-4.8736 1.6246-0.87475 3.9988-3.1241 3.249-3.8739 3.249-7.7478 0-6.873-10.622-10.872-3.499-1.2496-12.871-2.7492-20.119-3.8739-29.991-8.1226-4.2488-1.7495-8.3726-4.4987-9.4972-6.1232-12.496-15.62-1.4996-4.2488-1.4996-8.9974v-0.74979q0-11.872 8.8724-22.244 3.7489-3.8739 5.3735-4.9986 4.2488-3.1241 7.9977-4.9986 12.496-5.8733 27.617-5.8733z" opacity=".996" style="shape-inside:url(#rect927);white-space:pre"/>
 </g>
 <g transform="translate(-78.922 -292.36)">
  <path transform="rotate(6.8604)" d="m477.31 237.16c-8.7197 0-15.85 7.1299-15.85 15.85v186.64c0 8.7197 7.1299 15.852 15.85 15.852h128.81c8.7197 0 15.85-7.1318 15.85-15.852v-186.64c0-8.7197-7.1299-15.85-15.85-15.85zm0 7.0566h128.81c4.9326 0 8.7949 3.8604 8.7949 8.793v186.64c0 4.9326-3.8623 8.7949-8.7949 8.7949h-128.81c-4.9326 0-8.7949-3.8623-8.7949-8.7949v-186.64c0-4.9326 3.8623-8.793 8.7949-8.793z" color="#000000" color-rendering="auto" dominant-baseline="auto" fill="#e07a5f" fill-rule="evenodd" image-rendering="auto" shape-rendering="auto" solid-color="#000000" stop-color="#000000" style="font-feature-settings:normal;font-variant-alternates:normal;font-variant-caps:normal;font-variant-east-asian:normal;font-variant-ligatures:normal;font-variant-numeric:normal;font-variant-position:normal;font-variation-settings:normal;inline-size:0;isolation:auto;mix-blend-mode:normal;paint-order:normal;shape-margin:0;shape-padding:0;text-decoration-color:#000000;text-decoration-line:none;text-decoration-style:solid;text-indent:0;text-orientation:mixed;text-transform:none;white-space:normal"/>
  <g transform="matrix(2.8826 .39704 -.39704 2.8826 -450.8 -667.95)" fill="#fff" style="shape-inside:url(#rect960);white-space:pre" aria-label="45">
   <path d="m378.61 311-5.4452 9.2102q-5.2274 8.8057-5.4141 9.1479-0.0934 0.0623-0.43562 0.71566h9.5214l1.8047-0.0311v-19.043zm0.0623-11.855h5.943l0.0311 0.0311v30.867h3.6716l0.0311 0.0311v5.9431l-0.0311 0.0311h-3.6405v6.5965l-0.0311 0.0311h-5.9742l-0.0311-0.0311v-6.5654h-21.905v-0.0311l7.5611-12.726 7.3744-12.415 6.4098-10.797z" fill="#fff" stroke-width="1.5931"/>
  </g>
 </g>
</svg>
